<mxfile host="65bd71144e">
    <diagram id="ProductionSetup" name="Production Setup">
        <mxGraphModel dx="902" dy="442" grid="1" gridSize="10" guides="1" tooltips="1" connect="1" arrows="1" fold="1" page="1" pageScale="1" pageWidth="850" pageHeight="1100" background="#ffffff" math="0" shadow="0">
            <root>
                <mxCell id="0"/>
                <mxCell id="1" parent="0"/>
                <mxCell id="title" value="Production Architecture" style="text;html=1;align=center;verticalAlign=middle;whiteSpace=wrap;rounded=0;fontSize=48;fontColor=#000000;" parent="1" vertex="1">
                    <mxGeometry x="400" y="20" width="800" height="50" as="geometry"/>
                </mxCell>
                <mxCell id="arrow_s3_to_apigateway" style="edgeStyle=orthogonalEdgeStyle;rounded=0;orthogonalLoop=1;html=1;strokeColor=#000000;strokeWidth=2;" edge="1" parent="1" source="s3_bucket" target="api_gateway">
                    <mxGeometry relative="1" as="geometry"/>
                </mxCell>
                <mxCell id="arrow_apigateway_to_lambda" style="edgeStyle=orthogonalEdgeStyle;rounded=0;orthogonalLoop=1;html=1;strokeColor=#000000;strokeWidth=2;" edge="1" parent="1" source="api_gateway" target="lambda_function">
                    <mxGeometry relative="1" as="geometry"/>
                </mxCell>
                <mxCell id="arrow_lambda_to_dynamodb" style="edgeStyle=orthogonalEdgeStyle;rounded=0;orthogonalLoop=1;html=1;strokeColor=#000000;strokeWidth=2;" edge="1" parent="1" source="lambda_function" target="dynamodb">
                    <mxGeometry relative="1" as="geometry"/>
                </mxCell>
                <mxCell id="arrow_apigateway_to_cognito" style="edgeStyle=orthogonalEdgeStyle;rounded=0;orthogonalLoop=1;html=1;strokeColor=#000000;strokeWidth=2;" edge="1" parent="1" source="api_gateway" target="cognito">
                    <mxGeometry relative="1" as="geometry"/>
                </mxCell>
                <mxCell id="2" value="" style="group" vertex="1" connectable="0" parent="1">
                    <mxGeometry x="675" y="90" width="250" height="118" as="geometry"/>
                </mxCell>
                <mxCell id="api_gateway" value="" style="sketch=0;points=[[0,0,0],[0.25,0,0],[0.5,0,0],[0.75,0,0],[1,0,0],[0,1,0],[0.25,1,0],[0.5,1,0],[0.75,1,0],[1,1,0],[0,0.25,0],[0,0.5,0],[0,0.75,0],[1,0.25,0],[1,0.5,0],[1,0.75,0]];outlineConnect=0;fontColor=#232F3E;gradientColor=#945DF2;gradientDirection=north;fillColor=#5A30B5;strokeColor=#ffffff;dashed=0;verticalLabelPosition=bottom;verticalAlign=top;align=center;html=1;fontSize=12;fontStyle=0;aspect=fixed;shape=mxgraph.aws4.resourceIcon;resIcon=mxgraph.aws4.api_gateway;" vertex="1" parent="2">
                    <mxGeometry x="86" y="40" width="78" height="78" as="geometry"/>
                </mxCell>
                <mxCell id="label_api_gateway" value="API Gateway invoking the backend (Lambda)" style="text;html=1;align=center;fontSize=12;fontColor=#000000;fontStyle=1" vertex="1" parent="2">
                    <mxGeometry width="250" height="30" as="geometry"/>
                </mxCell>
                <mxCell id="4" value="" style="group" vertex="1" connectable="0" parent="1">
                    <mxGeometry x="457.5" y="130" width="200" height="120" as="geometry"/>
                </mxCell>
                <mxCell id="s3_bucket" value="" style="sketch=0;points=[[0,0,0],[0.25,0,0],[0.5,0,0],[0.75,0,0],[1,0,0],[0,1,0],[0.25,1,0],[0.5,1,0],[0.75,1,0],[1,1,0],[0,0.25,0],[0,0.5,0],[0,0.75,0],[1,0.25,0],[1,0.5,0],[1,0.75,0]];outlineConnect=0;fontColor=#232F3E;gradientColor=#60A337;gradientDirection=north;fillColor=#277116;strokeColor=#ffffff;dashed=0;verticalLabelPosition=bottom;verticalAlign=top;align=center;html=1;fontSize=12;fontStyle=0;aspect=fixed;shape=mxgraph.aws4.resourceIcon;resIcon=mxgraph.aws4.s3;" vertex="1" parent="4">
                    <mxGeometry x="61" width="78" height="78" as="geometry"/>
                </mxCell>
                <mxCell id="label_s3_bucket" value="S3 Bucket for static website hosting (frontend)" style="text;html=1;align=center;fontSize=12;fontColor=#000000;fontStyle=1" vertex="1" parent="4">
                    <mxGeometry y="90" width="200" height="30" as="geometry"/>
                </mxCell>
                <mxCell id="5" value="" style="group" vertex="1" connectable="0" parent="1">
                    <mxGeometry x="701.5" y="310" width="200" height="120" as="geometry"/>
                </mxCell>
                <mxCell id="cognito" value="" style="sketch=0;points=[[0,0,0],[0.25,0,0],[0.5,0,0],[0.75,0,0],[1,0,0],[0,1,0],[0.25,1,0],[0.5,1,0],[0.75,1,0],[1,1,0],[0,0.25,0],[0,0.5,0],[0,0.75,0],[1,0.25,0],[1,0.5,0],[1,0.75,0]];outlineConnect=0;fontColor=#232F3E;gradientColor=#F54749;gradientDirection=north;fillColor=#C7131F;strokeColor=#ffffff;dashed=0;verticalLabelPosition=bottom;verticalAlign=top;align=center;html=1;fontSize=12;fontStyle=1;aspect=fixed;shape=mxgraph.aws4.resourceIcon;resIcon=mxgraph.aws4.cognito;" vertex="1" parent="5">
                    <mxGeometry x="59.5" width="78" height="78" as="geometry"/>
                </mxCell>
                <mxCell id="label_cognito" value="Cognito for user authentication" style="text;html=1;align=center;fontSize=12;fontColor=#000000;fontStyle=1" vertex="1" parent="5">
                    <mxGeometry y="90" width="200" height="30" as="geometry"/>
                </mxCell>
                <mxCell id="6" value="" style="group" vertex="1" connectable="0" parent="1">
                    <mxGeometry x="916.5" y="310" width="250" height="120" as="geometry"/>
                </mxCell>
                <mxCell id="dynamodb" value="" style="sketch=0;points=[[0,0,0],[0.25,0,0],[0.5,0,0],[0.75,0,0],[1,0,0],[0,1,0],[0.25,1,0],[0.5,1,0],[0.75,1,0],[1,1,0],[0,0.25,0],[0,0.5,0],[0,0.75,0],[1,0.25,0],[1,0.5,0],[1,0.75,0]];outlineConnect=0;fontColor=#232F3E;gradientColor=#4D72F3;gradientDirection=north;fillColor=#3334B9;strokeColor=#ffffff;dashed=0;verticalLabelPosition=bottom;verticalAlign=top;align=center;html=1;fontSize=12;fontStyle=0;aspect=fixed;shape=mxgraph.aws4.resourceIcon;resIcon=mxgraph.aws4.dynamodb;" vertex="1" parent="6">
                    <mxGeometry x="86" width="78" height="78" as="geometry"/>
                </mxCell>
                <mxCell id="label_dynamodb" value="DynamoDB storing and retrieving user data" style="text;html=1;align=center;fontSize=12;fontColor=#000000;fontStyle=1" vertex="1" parent="6">
                    <mxGeometry y="90" width="250" height="30" as="geometry"/>
                </mxCell>
                <mxCell id="10" value="" style="group" vertex="1" connectable="0" parent="1">
                    <mxGeometry x="990" y="90" width="200" height="118" as="geometry"/>
                </mxCell>
                <mxCell id="lambda_function" value="" style="sketch=0;points=[[0,0,0],[0.25,0,0],[0.5,0,0],[0.75,0,0],[1,0,0],[0,1,0],[0.25,1,0],[0.5,1,0],[0.75,1,0],[1,1,0],[0,0.25,0],[0,0.5,0],[0,0.75,0],[1,0.25,0],[1,0.5,0],[1,0.75,0]];outlineConnect=0;fontColor=#232F3E;gradientColor=#F78E04;gradientDirection=north;fillColor=#D05C17;strokeColor=#ffffff;dashed=0;verticalLabelPosition=bottom;verticalAlign=top;align=center;html=1;fontSize=12;fontStyle=0;aspect=fixed;shape=mxgraph.aws4.resourceIcon;resIcon=mxgraph.aws4.lambda;" vertex="1" parent="10">
                    <mxGeometry x="12.5" y="40" width="78" height="78" as="geometry"/>
                </mxCell>
                <mxCell id="label_lambda_function" value="AWS Lambda executing backend logic" style="text;html=1;align=center;fontSize=12;fontColor=#000000;fontStyle=1" vertex="1" parent="10">
                    <mxGeometry width="200" height="30" as="geometry"/>
                </mxCell>
            </root>
        </mxGraphModel>
    </diagram>
</mxfile>
